<svg width="1920" height="1119" viewBox="0 0 1920 1119" fill="none" xmlns="http://www.w3.org/2000/svg">
<path d="M-83.8664 902.877C-86.1403 923.065 -60.2647 965.112 60.893 971.719C188.803 978.695 205.762 1000.4 221.918 1021.07C224.891 1024.88 227.836 1028.65 231.441 1032.28C254.636 1055.68 291.474 1079.08 421.091 1060.5C550.708 1041.92 677.596 1035.72 774.468 1079.77C851.965 1115.01 926.983 1119 954.567 1119C982.15 1119 1057.17 1115.01 1134.67 1079.77C1231.54 1035.72 1358.43 1041.92 1488.04 1060.5C1617.66 1079.08 1654.5 1055.68 1677.69 1032.28C1681.3 1028.65 1684.24 1024.88 1687.22 1021.07C1703.37 1000.4 1720.33 978.695 1848.24 971.719C1969.4 965.112 1995.14 923.085 1992.87 902.897V0H1991.2C1983.44 21.5321 1948.53 51.2707 1848.24 56.7397C1720.33 63.7149 1703.37 85.418 1687.22 106.093C1684.24 109.897 1681.3 113.667 1677.69 117.304C1654.5 140.704 1617.66 164.103 1488.04 145.521C1358.43 126.939 1231.54 120.745 1134.67 164.791C1057.17 200.029 982.15 204.02 954.567 204.02C926.983 204.02 851.965 200.029 774.468 164.791C677.596 120.745 550.708 126.939 421.091 145.521C291.474 164.103 254.636 140.704 231.441 117.304C227.836 113.667 224.891 109.897 221.918 106.093C205.762 85.418 188.803 63.7149 60.893 56.7397C-39.396 51.2707 -74.3077 21.5321 -82.0693 0H-83.7321L-83.8664 902.877Z" fill="#F5F5F5"/>
</svg>
